<svg width="20" height="18" viewBox="0 0 20 18" fill="#f4c519" xmlns="http://www.w3.org/2000/svg">
<path d="M10.2988 1.43103L12.4851 5.6453C12.5348 5.75227 12.613 5.84492 12.7119 5.91403C12.8109 5.98312 12.927 6.02627 13.0488 6.03915L17.875 6.72184C18.0149 6.73899 18.1466 6.79374 18.255 6.87972C18.3633 6.96569 18.4439 7.07933 18.4871 7.20735C18.5304 7.33538 18.5345 7.47252 18.4992 7.60274C18.464 7.73298 18.3905 7.85091 18.2875 7.9428L14.8088 11.2381C14.7201 11.3173 14.6534 11.4164 14.6151 11.5265C14.5766 11.6365 14.5676 11.754 14.5888 11.8682L15.4275 16.5026C15.4519 16.6358 15.4365 16.7728 15.3833 16.898C15.3301 17.0233 15.2411 17.1317 15.1264 17.2111C15.0119 17.2904 14.8762 17.3374 14.735 17.3469C14.5937 17.3562 14.4525 17.3276 14.3275 17.264L9.98259 15.0716C9.87134 15.0194 9.74903 14.9924 9.62509 14.9924C9.50114 14.9924 9.37885 15.0194 9.26759 15.0716L4.92259 17.264C4.79759 17.3276 4.65644 17.3562 4.51522 17.3469C4.37399 17.3374 4.23835 17.2904 4.12374 17.2111C4.00912 17.1317 3.92013 17.0233 3.86689 16.898C3.81366 16.7728 3.7983 16.6358 3.82259 16.5026L4.66134 11.8157C4.68259 11.7015 4.6736 11.584 4.63518 11.474C4.59677 11.3639 4.53012 11.2648 4.44134 11.1856L0.921341 7.9428C0.817203 7.8484 0.743966 7.72719 0.710504 7.59387C0.677042 7.46053 0.684792 7.32079 0.732811 7.19158C0.780831 7.06237 0.867062 6.94923 0.981059 6.86585C1.09506 6.78248 1.23193 6.73245 1.37509 6.72184L6.20134 6.03915C6.32316 6.02627 6.43932 5.98312 6.53824 5.91403C6.63716 5.84492 6.71537 5.75227 6.76509 5.6453L8.95134 1.43103C9.01087 1.30829 9.10594 1.20437 9.22533 1.13154C9.34471 1.05872 9.48342 1.02002 9.62509 1.02002C9.76675 1.02002 9.90548 1.05872 10.0249 1.13154C10.1442 1.20437 10.2393 1.30829 10.2988 1.43103Z" stroke-linecap="round" stroke-linejoin="round"/>
</svg>
